<?xml version="1.0" encoding="UTF-8" standalone="no"?>
<!-- Created with Inkscape (http://www.inkscape.org/) -->

<svg
   xmlns:osb="http://www.openswatchbook.org/uri/2009/osb"
   xmlns:dc="http://purl.org/dc/elements/1.1/"
   xmlns:cc="http://creativecommons.org/ns#"
   xmlns:rdf="http://www.w3.org/1999/02/22-rdf-syntax-ns#"
   xmlns:svg="http://www.w3.org/2000/svg"
   xmlns="http://www.w3.org/2000/svg"
   xmlns:xlink="http://www.w3.org/1999/xlink"
   xmlns:sodipodi="http://sodipodi.sourceforge.net/DTD/sodipodi-0.dtd"
   xmlns:inkscape="http://www.inkscape.org/namespaces/inkscape"
   width="210mm"
   height="297mm"
   id="svg2"
   version="1.1"
   inkscape:version="0.48.3.1 r9886"
   enable-background="new"
   sodipodi:docname="makefly-odversion.svg"
   inkscape:export-filename="C:\Users\Olivier\Documents\makefly.png"
   inkscape:export-xdpi="90"
   inkscape:export-ydpi="90">
  <title
     id="title3147">Logo Makefly</title>
  <defs
     id="defs4">
    <linearGradient
       osb:paint="gradient"
       id="linearGradient6170">
      <stop
         id="stop6172"
         offset="0"
         style="stop-color:#ffffff;stop-opacity:1;" />
      <stop
         style="stop-color:#fdd91d;stop-opacity:1;"
         offset="0.0625"
         id="stop6174" />
      <stop
         style="stop-color:#fddb2c;stop-opacity:1;"
         offset="0.125"
         id="stop6176" />
      <stop
         style="stop-color:#fcdf49;stop-opacity:1;"
         offset="0.25"
         id="stop6178" />
      <stop
         style="stop-color:#fae783;stop-opacity:1;"
         offset="0.5"
         id="stop6180" />
      <stop
         id="stop6182"
         offset="1"
         style="stop-color:#f7f7f7;stop-opacity:0.99275362;" />
    </linearGradient>
    <marker
       inkscape:stockid="DotL"
       orient="auto"
       refY="0.0"
       refX="0.0"
       id="DotL"
       style="overflow:visible">
      <path
         id="path5577"
         d="M -2.5,-1.0 C -2.5,1.7600000 -4.7400000,4.0 -7.5,4.0 C -10.260000,4.0 -12.5,1.7600000 -12.5,-1.0 C -12.5,-3.7600000 -10.260000,-6.0 -7.5,-6.0 C -4.7400000,-6.0 -2.5,-3.7600000 -2.5,-1.0 z "
         style="fill-rule:evenodd;stroke:#000000;stroke-width:1.0pt"
         transform="scale(0.8) translate(7.4, 1)" />
    </marker>
    <linearGradient
       id="linearGradient5480">
      <stop
         style="stop-color:#000000;stop-opacity:1;"
         offset="0"
         id="stop5482" />
      <stop
         style="stop-color:#000000;stop-opacity:0;"
         offset="1"
         id="stop5484" />
    </linearGradient>
    <linearGradient
       id="linearGradient5448"
       osb:paint="gradient">
      <stop
         style="stop-color:#fea30f;stop-opacity:1;"
         offset="0"
         id="stop5450" />
      <stop
         id="stop5462"
         offset="0.0625"
         style="stop-color:#fdd91d;stop-opacity:0.9372549;" />
      <stop
         id="stop5460"
         offset="0.125"
         style="stop-color:#fddb2c;stop-opacity:0.8745098;" />
      <stop
         id="stop5458"
         offset="0.25"
         style="stop-color:#fcdf49;stop-opacity:0.74901961;" />
      <stop
         id="stop5456"
         offset="0.5"
         style="stop-color:#fae783;stop-opacity:0.49803922;" />
      <stop
         style="stop-color:#f7f7f7;stop-opacity:0;"
         offset="1"
         id="stop5452" />
    </linearGradient>
    <linearGradient
       id="linearGradient5342">
      <stop
         style="stop-color:#ece217;stop-opacity:0.89361703;"
         offset="0"
         id="stop5344" />
      <stop
         style="stop-color:#f6d217;stop-opacity:0;"
         offset="1"
         id="stop5346" />
    </linearGradient>
    <linearGradient
       id="linearGradient5328"
       osb:paint="gradient">
      <stop
         style="stop-color:#ffd50c;stop-opacity:0.12056737;"
         offset="0"
         id="stop5330" />
      <stop
         style="stop-color:#000000;stop-opacity:0;"
         offset="1"
         id="stop5332" />
    </linearGradient>
    <linearGradient
       id="linearGradient3846"
       osb:paint="gradient">
      <stop
         style="stop-color:#000000;stop-opacity:1;"
         offset="0"
         id="stop3848" />
      <stop
         style="stop-color:#000000;stop-opacity:0;"
         offset="1"
         id="stop3850" />
    </linearGradient>
    <linearGradient
       inkscape:collect="always"
       xlink:href="#linearGradient5448"
       id="linearGradient5454"
       x1="225.61467"
       y1="509.64106"
       x2="338.28824"
       y2="521.46643"
       gradientUnits="userSpaceOnUse" />
    <linearGradient
       inkscape:collect="always"
       xlink:href="#linearGradient5448"
       id="linearGradient5470"
       x1="401.52704"
       y1="702.96002"
       x2="459.61304"
       y2="714.43787"
       gradientUnits="userSpaceOnUse" />
    <linearGradient
       inkscape:collect="always"
       xlink:href="#linearGradient5448"
       id="linearGradient5478"
       x1="580.36798"
       y1="976.02789"
       x2="674.99109"
       y2="976.02789"
       gradientUnits="userSpaceOnUse" />
    <linearGradient
       inkscape:collect="always"
       xlink:href="#linearGradient5448"
       id="linearGradient5490"
       x1="779.89447"
       y1="1042.5723"
       x2="860.66174"
       y2="1042.5723"
       gradientUnits="userSpaceOnUse" />
    <linearGradient
       inkscape:collect="always"
       xlink:href="#linearGradient6170"
       id="linearGradient5510"
       x1="100.04531"
       y1="1227.8153"
       x2="454.4823"
       y2="-2.0046952"
       gradientUnits="userSpaceOnUse" />
    <filter
       inkscape:collect="always"
       id="filter6339">
      <feGaussianBlur
         inkscape:collect="always"
         stdDeviation="2.1099877"
         id="feGaussianBlur6341" />
    </filter>
    <linearGradient
       inkscape:collect="always"
       xlink:href="#linearGradient5448"
       id="linearGradient3883"
       gradientUnits="userSpaceOnUse"
       x1="779.89447"
       y1="1042.5723"
       x2="860.66174"
       y2="1042.5723"
       gradientTransform="matrix(0,-1,1,0,-79.747272,825.24074)" />
    <linearGradient
       inkscape:collect="always"
       xlink:href="#linearGradient5448"
       id="linearGradient3885"
       gradientUnits="userSpaceOnUse"
       x1="580.36798"
       y1="976.02789"
       x2="674.99109"
       y2="976.02789"
       gradientTransform="matrix(0,-1,1,0,-79.747272,825.24074)" />
    <linearGradient
       inkscape:collect="always"
       xlink:href="#linearGradient5448"
       id="linearGradient3887"
       gradientUnits="userSpaceOnUse"
       x1="401.52704"
       y1="702.96002"
       x2="459.61304"
       y2="714.43787"
       gradientTransform="matrix(0,-1,1,0,-79.747272,825.24074)" />
    <linearGradient
       inkscape:collect="always"
       xlink:href="#linearGradient5448"
       id="linearGradient3889"
       gradientUnits="userSpaceOnUse"
       x1="225.61467"
       y1="509.64106"
       x2="338.28824"
       y2="521.46643"
       gradientTransform="matrix(0,-1,1,0,-79.747272,825.24074)" />
    <linearGradient
       inkscape:collect="always"
       xlink:href="#linearGradient6170"
       id="linearGradient3891"
       gradientUnits="userSpaceOnUse"
       x1="100.04531"
       y1="1227.8153"
       x2="454.4823"
       y2="-2.0046952"
       gradientTransform="matrix(0,-1,1,0,-79.747272,825.24074)" />
  </defs>
  <sodipodi:namedview
     id="base"
     pagecolor="#ffffff"
     bordercolor="#666666"
     borderopacity="1.0"
     inkscape:pageopacity="0.0"
     inkscape:pageshadow="2"
     inkscape:zoom="0.37027919"
     inkscape:cx="387.40762"
     inkscape:cy="584.6566"
     inkscape:document-units="px"
     inkscape:current-layer="layer2"
     showgrid="false"
     showborder="false"
     inkscape:window-width="1280"
     inkscape:window-height="977"
     inkscape:window-x="0"
     inkscape:window-y="25"
     inkscape:window-maximized="1" />
  <metadata
     id="metadata7">
    <rdf:RDF>
      <cc:Work
         rdf:about="">
        <dc:format>image/svg+xml</dc:format>
        <dc:type
           rdf:resource="http://purl.org/dc/dcmitype/StillImage" />
        <dc:title>Logo Makefly</dc:title>
        <dc:creator>
          <cc:Agent>
            <dc:title>Ines ECK</dc:title>
          </cc:Agent>
        </dc:creator>
        <cc:license
           rdf:resource="http://artlibre.org/licence/lal" />
        <dc:subject>
          <rdf:Bag>
            <rdf:li>logo</rdf:li>
            <rdf:li>makefly</rdf:li>
          </rdf:Bag>
        </dc:subject>
        <dc:description>Logo pour le projet Makefly</dc:description>
        <dc:contributor>
          <cc:Agent>
            <dc:title>Olivier DOSSMANN</dc:title>
          </cc:Agent>
        </dc:contributor>
      </cc:Work>
      <cc:License
         rdf:about="http://artlibre.org/licence/lal">
        <cc:permits
           rdf:resource="http://creativecommons.org/ns#Reproduction" />
        <cc:permits
           rdf:resource="http://creativecommons.org/ns#Distribution" />
        <cc:permits
           rdf:resource="http://creativecommons.org/ns#DerivativeWorks" />
        <cc:requires
           rdf:resource="http://creativecommons.org/ns#ShareAlike" />
        <cc:requires
           rdf:resource="http://creativecommons.org/ns#Notice" />
        <cc:requires
           rdf:resource="http://creativecommons.org/ns#Attribution" />
      </cc:License>
    </rdf:RDF>
  </metadata>
  <g
     inkscape:groupmode="layer"
     id="layer2"
     inkscape:label="feuille"
     style="opacity:0.8100358">
    <path
       style="fill:url(#linearGradient3891);fill-opacity:1;stroke:#7a4d05;stroke-width:1;stroke-linecap:butt;stroke-linejoin:round;stroke-miterlimit:4;stroke-opacity:1;stroke-dasharray:none;stroke-dashoffset:0;marker-start:none;opacity:1"
       d="m 926.90063,-23.330686 c -6.4286,20.7142895 -35,76.42857 -108.57143,157.142856 0,0 -48.57143,48.57143 -151.42857,100 0,0 -45.71428,30.71429 -151.42857,68.57143 0,0 -37.14286,12.14286 -165,17.14286 0,0 -212.14286,-0.71429 -309.285722,11.42857 0,0 -142.857138,30.71428 -176.428568,55 0,0 -83.57143,49.28571 -121.42857,120.71428 0,0 -29.28571,42.85714 -32.14286,102.85714 0,0 -5,73.57143 15.71428,123.57144 0,0 14.28572,45 64.28572,114.28571 0,0 38.57143,65 112.857142,100.71428 0,0 46.428574,32.14286 122.857146,34.28572 0,0 80.714282,10.71428 118.571422,-17.14286 0,0 37.85715,-10.71429 70.00001,-57.14285 0,0 39.28571,-75.71429 34.28571,-105.71429 0,0 11.23298,-37.97308 -7.81802,-102.06462 0,0 0.44057,-29.96037 -49.32484,-106.50681 5,16.42857 71.42857,88.57143 71.42857,88.57143 60.71429,34.28571 95.00001,25.71429 95.00001,25.71429 58.57142,-2.14286 94.99999,-27.85715 94.99999,-27.85715 31.42858,-17.14286 58.57143,-77.85714 58.57143,-77.85714 25,-69.28571 6.42858,-92.85715 6.42858,-92.85715 l -15.00001,-25.71428 c 22.14286,20.71429 55.00001,27.14286 55.00001,27.14286 35.71428,15.71428 102.85714,-4.28572 102.85714,-4.28572 26.42857,-18.57143 32.14286,-28.57142 32.14286,-28.57142 12.14286,-4.28572 24.28571,-50.00001 24.28571,-50.00001 -3.57143,-45 -30.71429,-67.14285 -30.71429,-67.14285 -15,-15 -26.42857,-21.42858 -26.42857,-21.42858 34.28571,-3.57143 65.71429,-5.71428 65.71429,-5.71428 94.28571,5.71429 122.85714,-2.85714 122.85714,-2.85714 65,-17.14286 97.14286,-51.42858 97.14286,-51.42858 32.1429,-30.71429 37.1429,-54.28571 37.1429,-54.28571 2.8571,-23.57143 -15.7143,-50.71428 -15.7143,-50.71428 -19.2857,-20 -44.2857,-23.57143 -44.2857,-23.57143 44.2857,-17.14286 68.5714,-48.57143 68.5714,-48.57143 42.14287,-54.285706 39.99997,-95.7142765 39.99997,-95.7142765 5,-17.8571495 0,-37.8571495 0,-37.8571495 -7.1429,-30 -17.1429,-35 -17.1429,-35 -7.8571,-16.42857 -27.85707,-12.85715 -27.85707,-12.85715 -11.4285,-2.14286 -26.7171,4.79408 -41.4286,22.85715 -9.2417,10.84474 -19.2857,32.85714 -19.2857,32.85714 z"
       id="path3819"
       inkscape:connector-curvature="0"
       sodipodi:nodetypes="ccccccccccccccccccccccccccccccccccccccccccc" />
    <path
       style="fill:#000000;fill-opacity:1;stroke:#000000;stroke-width:0.33758312;stroke-opacity:1"
       d=""
       id="path5400"
       inkscape:connector-curvature="0" />
    <path
       style="fill:#000000;fill-opacity:1;stroke:#000000;stroke-width:0.33758312;stroke-opacity:1"
       d="m -15.473061,706.12434 c -1.021189,0 -1.438948,-0.0633 -0.928354,-0.14064 0.510595,-0.0773 1.346113,-0.0773 1.856707,0 0.510595,0.0774 0.09284,0.14064 -0.928353,0.14064 z"
       id="path5404"
       inkscape:connector-curvature="0" />
    <path
       style="fill:#ffd505;fill-opacity:1;stroke:#f1ca30;stroke-width:0.23899999;stroke-linejoin:round;stroke-miterlimit:4;stroke-opacity:1;stroke-dasharray:none;stroke-dashoffset:0;filter:url(#filter6339)"
       d="m 125.47442,143.27083 c -5.96722,-0.75586 -15.37265,-3.36114 -21.33021,-5.90841 C 92.99182,132.594 88.5701,127.568 78.35996,108.05445 l -1.82895,-3.49548 -0.43735,-17.27206 -0.43735,-17.27206 2.74062,-6.20639 c 4.91342,-11.12692 8.12135,-16.9931 11.80259,-21.58288 2.07753,-2.59026 9.69957,-10.085227 12.70394,-12.49214 4.5207,-3.621705 9.40802,-6.585948 17.85251,-10.827824 l 2.56213,-1.287021 2.80879,-0.01048 c 4.35518,-0.01625 5.83588,-0.267869 8.53777,-1.450823 l 2.38707,-1.045122 3.34191,0.02361 c 3.5227,0.02489 8.85629,0.548621 11.9815,1.17652 4.20978,0.845805 8.2274,2.574174 12.48599,5.371444 6.31222,4.146193 10.1829,8.672571 11.92614,13.946446 1.33362,4.03462 3.05203,11.48936 2.72405,11.81735 -0.0632,0.0632 -5.66793,0.18484 -12.45504,0.27041 -9.94873,0.12542 -12.57151,0.22508 -13.53374,0.51429 -4.28904,1.28909 -6.41623,2.62119 -10.16802,6.36746 -6.202,6.19286 -10.21422,14.10679 -11.56683,22.81507 -0.77327,4.97845 -0.15161,8.66318 2.37311,14.06591 1.82992,3.91593 2.95653,5.33917 9.09484,11.48945 5.22781,5.23802 5.88878,5.81844 7.52176,6.6052 5.88209,2.83394 17.16416,3.45731 23.38828,1.29227 0.85615,-0.2978 2.36166,-1.07175 3.34559,-1.71987 1.95792,-1.28972 5.97583,-5.03369 7.63963,-7.11875 0.57972,-0.72652 1.08928,-1.28571 1.13233,-1.24266 0.16121,0.16121 -0.90144,6.41248 -1.47264,8.66321 -1.29224,5.09181 -2.46307,7.93663 -4.25388,10.3358 -1.16158,1.5562 -7.73994,8.16736 -11.68743,11.74573 -4.51816,4.09568 -9.02238,6.73215 -15.1162,8.848 -6.12383,2.12628 -10.73134,2.77523 -20.64003,2.90708 -3.74173,0.0498 -7.17912,0.0429 -7.63863,-0.0153 l 0,0 z"
       id="path6329"
       inkscape:connector-curvature="0"
       transform="matrix(0,-1.2009837,1.0778525,0,-83.213753,842.11285)" />
  </g>
  <g
     inkscape:groupmode="layer"
     id="layer3"
     inkscape:label="interrieur">
    <path
       style="fill:url(#linearGradient3889);fill-opacity:1;stroke:#f5bc11;stroke-width:1px;stroke-linecap:butt;stroke-linejoin:miter;stroke-opacity:1"
       d="m 504.04955,483.60663 c 0,0 -8.77716,-15.52883 -31.73281,-29.70732 -14.17849,-15.52882 -54.68846,-14.17848 -54.68846,-14.17848 -14.85366,4.72616 -27.68182,15.52882 -27.68182,15.52882 -21.60532,20.25499 -32.40798,51.31263 -32.40798,51.31263 -4.051,27.68182 0,45.91131 0,45.91131 6.75166,19.57982 20.93015,28.35698 20.93015,28.35698 14.85366,13.50332 29.70732,18.22948 29.70732,18.22948 19.57982,0.67517 27.00665,-4.05099 27.00665,-4.05099 14.17849,-12.82816 14.85365,-14.85366 14.85365,-14.85366 4.051,-3.37583 4.72617,-14.85366 4.72617,-14.85366 0.67517,-6.75166 -4.72617,-16.20399 -4.72617,-16.20399"
       id="path3822"
       inkscape:connector-curvature="0"
       sodipodi:nodetypes="cccccccccccc" />
    <path
       style="fill:url(#linearGradient3887);fill-opacity:1;stroke:#ffd405;stroke-width:1px;stroke-linecap:butt;stroke-linejoin:miter;stroke-opacity:1"
       d="m 661.36328,339.79622 c -10.12749,-6.0765 -30.38248,-7.42682 -30.38248,-7.42682 -17.55432,2.0255 -27.00665,8.10199 -27.00665,8.10199 -17.55432,9.45233 -19.57982,27.00665 -19.57982,27.00665 -1.35033,24.30598 14.17849,38.48447 14.17849,38.48447 6.75166,11.47783 27.68182,16.20399 27.68182,16.20399 14.17849,2.70066 26.33148,-0.67516 26.33148,-0.67516 7.42683,0.67517 9.45233,-9.45233 9.45233,-9.45233 0.67517,-4.72616 -3.37583,-7.42683 -3.37583,-7.42683"
       id="path3824"
       inkscape:connector-curvature="0"
       sodipodi:nodetypes="ccccccccc" />
    <path
       style="fill:url(#linearGradient3885);fill-opacity:1;stroke:#f8d116;stroke-width:1px;stroke-linecap:butt;stroke-linejoin:miter;stroke-opacity:1"
       d="m 925.35323,150.74968 c -32.40795,0.67516 -41.86026,10.12749 -41.86026,10.12749 -11.47783,2.70066 -19.57982,14.1785 -19.57982,14.1785 -6.75166,7.42683 -9.45233,31.73281 -9.45233,31.73281 -2.70066,6.75166 2.70067,26.33148 2.70067,26.33148 11.47783,11.47783 16.20399,9.45233 16.20399,9.45233 20.25499,4.051 23.63082,0 23.63082,0 15.7952,-0.1225 21.15522,-7.65189 31.73283,-11.47783 7.4268,-5.40133 10.1275,-10.80266 10.1275,-10.80266 0,-6.75166 -4.7262,-9.45233 -4.7262,-9.45233 -1.3503,-2.70066 -12.8282,-7.42682 -8.102,-6.75165"
       id="path3826"
       inkscape:connector-curvature="0"
       sodipodi:nodetypes="ccccccccccc" />
    <path
       style="fill:url(#linearGradient3883);fill-opacity:1;stroke:#f1cc45;stroke-width:1px;stroke-linecap:butt;stroke-linejoin:miter;stroke-opacity:1"
       d="m 933.45523,-34.921026 c -8.102,12.15299 -9.4523,26.3314795 -9.4523,26.3314795 0,19.5798205 10.1275,37.1341405 10.1275,37.1341405 8.102,14.85366 26.3315,15.52883 26.3315,15.52883 18.2295,3.37583 24.9811,-5.40133 24.9811,-5.40133 10.8027,-6.0765 13.5034,-22.95565 13.5034,-22.95565 6.07647,-16.20399045 0,-26.33149 0,-26.33149 -2.0255,-6.75166 -12.8282,-5.40133 -12.8282,-5.40133 0,0 -5.4013,0 -10.1275,6.0764995"
       id="path3828"
       inkscape:connector-curvature="0"
       sodipodi:nodetypes="ccccccccc" />
  </g>
</svg>
